<?xml version="1.0" encoding="utf-8"?>
<!-- Generator: Adobe Illustrator 16.0.0, SVG Export Plug-In . SVG Version: 6.00 Build 0)  -->
<!DOCTYPE svg PUBLIC "-//W3C//DTD SVG 1.1//EN" "http://www.w3.org/Graphics/SVG/1.1/DTD/svg11.dtd">
<svg version="1.1" id="Layer_1" xmlns="http://www.w3.org/2000/svg" xmlns:xlink="http://www.w3.org/1999/xlink" x="0px" y="0px"
	 width="200px" height="200px" viewBox="0 0 200 200" enable-background="new 0 0 200 200" xml:space="preserve">
<g>
	<g>
		<path fill="#FFFFFF" d="M9.342,169.349c0-50.044,0-100.087,0-150.131c57.892,0,115.783,0,173.675,0c0,50.044,0,100.087,0,150.131
			C125.125,169.349,67.233,169.349,9.342,169.349z M139.737,79.927c0.082,0.083,0.164,0.167,0.247,0.25
			c-1.905,1.785-3.848,3.532-5.69,5.38c-0.513,0.515-0.949,1.296-1.045,2.006c-0.626,4.673-0.981,9.388-1.79,14.026
			c-0.322,1.853-1.585,3.536-2.39,5.311c-0.351,0.772-0.882,1.578-0.891,2.373c-0.073,6.312-0.02,12.624-0.062,18.936
			c-0.007,1.002-0.172,2.042-0.479,2.995c-2.007,6.211-4.108,12.392-6.091,18.61c-0.367,1.153-0.598,2.474-0.428,3.649
			c0.391,2.703,2.556,4.505,5.274,4.734c2.633,0.222,4.997-1.255,5.931-3.918c1.482-4.23,2.651-8.581,4.309-12.739
			c2.635-6.61,3.809-13.381,3.237-20.469c-0.094-1.159-0.014-2.331-0.014-3.531c1.125,0,1.965,0,2.872,0
			c1.295,3.174,2.679,6.29,3.814,9.494c0.449,1.265,0.623,2.764,0.443,4.092c-0.927,6.866-2.047,13.706-2.993,20.57
			c-0.139,1.007,0.106,2.172,0.504,3.126c1.021,2.448,3.432,3.673,6.106,3.313c2.745-0.369,4.59-2.401,5.073-5.602
			c1.025-6.796,1.953-13.607,3.109-20.38c0.558-3.265,0.235-6.23-1.155-9.256c-1.895-4.121-3.499-8.377-5.179-12.595
			c-0.286-0.717-0.457-1.529-0.464-2.3c-0.041-4.719-0.024-9.439-0.015-14.159c0.001-0.405,0.087-0.811,0.121-1.11
			c1.064,0.426,1.97,0.964,2.941,1.146c4.185,0.784,8.387,1.477,12.587,2.177c3.13,0.521,5.621-1.093,6.123-3.923
			c0.487-2.749-1.441-5.151-4.574-5.696c-3.244-0.564-6.495-1.094-9.726-1.725c-0.586-0.115-1.255-0.528-1.605-1.008
			c-1.544-2.108-3.051-4.25-4.438-6.463c-0.766-1.223-1.384-2.57-1.865-3.932c-1.203-3.4-3.327-6.061-6.915-6.605
			c-3.085-0.469-6.365-0.438-9.444,0.066c-2.992,0.49-5.072,2.658-6.329,5.872c2.236-0.574,4.144-1.062,6.05-1.551
			c-3.663,2.39-7.375,4.588-11.206,6.554c-2.452,1.258-3.534,3.111-3.793,5.782c-0.514,5.314-1.175,10.616-1.819,15.917
			c-0.408,3.353,1.183,5.872,4.015,6.217c3.119,0.38,5.27-1.598,5.673-5.132c0.521-4.572,1.077-9.141,1.666-13.705
			c0.063-0.495,0.315-1.167,0.694-1.388C133.303,83.485,136.527,81.719,139.737,79.927z M95.611,117.687
			c2.083-0.641,3.098,0.009,3.732,1.891c0.941,2.791,2.208,5.471,3.263,8.226c0.248,0.648,0.367,1.432,0.271,2.114
			c-0.846,5.959-1.756,11.909-2.643,17.862c-0.176,1.18-0.369,2.357-0.499,3.542c-0.398,3.647,1.645,6.414,5.028,6.849
			c3.264,0.419,6.02-1.757,6.562-5.255c0.931-6.005,1.575-12.065,2.796-18.009c1.067-5.19,0.533-9.904-1.85-14.635
			c-3.267-6.484-5.664-13.247-4.606-20.733c0.137-0.968-0.231-1.41-1.27-1.538c-1.856-0.229-3.703-0.581-5.533-0.977
			c-2.242-0.486-3.823-1.864-4.346-4.092c-1.154-4.906-2.159-9.848-3.225-14.774c0.511,0.385,0.793,0.857,1.034,1.349
			c1.647,3.364,3.372,6.694,4.898,10.112c1.101,2.465,2.778,3.84,5.493,4.188c3.249,0.417,6.467,1.07,9.868,1.65
			c0.396-3.328,0.767-6.448,1.146-9.645c-0.94-0.171-1.715-0.427-2.493-0.435c-4.179-0.043-6.93-1.817-8.15-6.005
			c-0.564-1.936-1.74-3.693-2.64-5.532c0.094-0.048,0.188-0.096,0.281-0.145c1.551,1.802,3.103,3.604,4.937,5.735
			c0-1.471,0.015-2.435-0.003-3.398c-0.089-4.775-3.199-8.861-7.913-9.523c-4.85-0.682-9.618-0.776-13.697,3.159
			c-3.749,3.617-8.043,6.67-12.114,9.951c-1.551,1.25-2.496,2.746-2.376,4.821c0.334,5.784,0.605,11.572,0.988,17.353
			c0.069,1.039,0.369,2.156,0.882,3.056c1.064,1.864,3.47,2.631,5.515,1.979c2.065-0.659,3.475-2.636,3.374-4.994
			c-0.194-4.539-0.356-9.085-0.779-13.606c-0.177-1.898,0.406-2.964,2.35-3.797c0,1.516,0,2.858,0,4.2
			c0,12.053-0.051,24.105,0.035,36.157c0.022,3.166-0.298,6.187-1.446,9.159c-1.021,2.644-1.797,5.382-2.687,8.077
			c-0.925,2.804-1.911,5.588-2.769,8.412c-1.192,3.923,1.295,7.558,5.251,7.788c2.65,0.154,4.944-1.443,5.886-4.249
			c2.366-7.042,4.7-14.096,6.994-21.162c0.31-0.952,0.422-2.003,0.435-3.01C95.639,125.773,95.611,121.744,95.611,117.687z
			 M69.383,100.02c-0.219-3.872-0.42-7.423-0.623-10.975c-0.013-0.227,0.043-0.502-0.064-0.671
			c-0.256-0.403-0.516-0.901-0.907-1.104c-2.099-1.092-3.458-2.862-4.711-4.784c-1.365-2.094-2.855-4.106-4.213-6.204
			c-0.479-0.74-0.851-1.6-1.06-2.456c-1.039-4.262-4.627-7.324-9.015-7.517c-1.815-0.08-3.645-0.12-5.453,0.018
			c-3.705,0.282-6.482,2.169-7.973,5.532c-0.476,1.076-0.905,1.995-1.79,2.76c-3.613,3.122-7.221,6.25-10.778,9.436
			c-1.938,1.735-2.52,3.98-1.285,5.97c2.903,4.68,5.928,9.289,9.034,13.838c1.181,1.729,3.442,2.18,5.376,1.469
			c2.01-0.739,3.392-2.598,3.096-4.759c-0.175-1.282-0.83-2.565-1.517-3.698c-1.668-2.75-3.481-5.412-5.257-8.143
			c1.646-1.439,3.141-2.748,4.638-4.054c1.436-1.253,2.874-2.504,4.312-3.756c-1.118,2.177-2.44,4.097-3.917,5.89
			c-0.767,0.931-0.69,1.558-0.038,2.502c1.646,2.381,3.287,4.783,4.699,7.305c2.707,4.832,0.167,10.93-5.111,12.525
			c-0.807,0.243-1.653,0.352-2.522,0.531c0,6.021,0.038,11.986-0.029,17.95c-0.015,1.335-0.234,2.719-0.64,3.989
			c-1.934,6.058-4,12.073-5.933,18.131c-0.369,1.156-0.616,2.472-0.458,3.651c0.363,2.718,2.499,4.531,5.223,4.785
			c2.768,0.257,5.141-1.286,6.107-4.146c2.033-6.018,3.918-12.086,6.015-18.081c1.029-2.941,1.582-5.878,1.459-8.997
			c-0.122-3.103-0.027-6.214-0.027-9.252c2.017-0.594,3.085-0.132,3.713,1.834c0.843,2.641,2.144,5.131,3.075,7.748
			c0.379,1.067,0.548,2.332,0.392,3.448c-0.974,6.974-2.13,13.922-3.061,20.901c-0.159,1.196,0.235,2.62,0.794,3.727
			c1.143,2.262,3.697,3.245,6.25,2.724c2.416-0.494,4.169-2.538,4.62-5.489c1.054-6.905,2.027-13.823,3.139-20.72
			c0.445-2.756,0.43-5.331-0.752-7.969c-1.996-4.45-3.753-9.008-5.565-13.538c-0.287-0.717-0.466-1.526-0.473-2.295
			c-0.042-4.719-0.024-9.439-0.016-14.158c0-0.412,0.08-0.824,0.129-1.299c1.93,1.296,3.716,2.504,5.511,3.699
			C65.559,97.503,67.346,98.675,69.383,100.02z M140.01,64.008c6.322,0.011,11.391-4.989,11.444-11.288
			c0.053-6.317-5.131-11.517-11.455-11.488c-6.311,0.028-11.289,5.059-11.292,11.411C128.705,59.01,133.665,63.998,140.01,64.008z
			 M46.146,64.008c6.378,0.023,11.514-5.109,11.458-11.448c-0.055-6.267-5.211-11.367-11.453-11.328
			c-6.277,0.039-11.393,5.171-11.372,11.408C34.803,58.958,39.829,63.986,46.146,64.008z M95.733,64.015
			c6.282,0.023,11.383-4.996,11.477-11.293c0.094-6.243-5.168-11.506-11.487-11.49c-6.194,0.016-11.282,5.067-11.324,11.244
			C84.354,58.919,89.335,63.991,95.733,64.015z"/>
		<path fill-rule="evenodd" clip-rule="evenodd" d="M139.737,79.927c-3.21,1.792-6.435,3.558-9.609,5.409
			c-0.379,0.222-0.631,0.893-0.694,1.388c-0.589,4.564-1.146,9.132-1.666,13.705c-0.403,3.535-2.554,5.512-5.673,5.132
			c-2.832-0.345-4.423-2.864-4.015-6.217c0.645-5.301,1.306-10.602,1.819-15.917c0.259-2.67,1.341-4.523,3.793-5.782
			c3.831-1.965,7.543-4.164,11.206-6.554c-1.906,0.489-3.813,0.978-6.05,1.551c1.257-3.214,3.337-5.382,6.329-5.872
			c3.079-0.504,6.359-0.535,9.444-0.066c3.588,0.544,5.712,3.205,6.915,6.605c0.481,1.362,1.1,2.709,1.865,3.932
			c1.387,2.213,2.894,4.355,4.438,6.463c0.351,0.48,1.02,0.893,1.605,1.008c3.23,0.631,6.481,1.16,9.726,1.725
			c3.133,0.545,5.062,2.948,4.574,5.696c-0.502,2.831-2.993,4.444-6.123,3.923c-4.2-0.7-8.402-1.393-12.587-2.177
			c-0.972-0.182-1.877-0.72-2.941-1.146c-0.034,0.3-0.12,0.705-0.121,1.11c-0.01,4.72-0.026,9.44,0.015,14.159
			c0.007,0.771,0.178,1.583,0.464,2.3c1.68,4.218,3.284,8.474,5.179,12.595c1.391,3.025,1.713,5.991,1.155,9.256
			c-1.156,6.772-2.084,13.584-3.109,20.38c-0.483,3.2-2.328,5.232-5.073,5.602c-2.675,0.359-5.086-0.865-6.106-3.313
			c-0.397-0.954-0.643-2.119-0.504-3.126c0.946-6.864,2.066-13.704,2.993-20.57c0.18-1.328,0.006-2.827-0.443-4.092
			c-1.136-3.204-2.52-6.32-3.814-9.494c-0.907,0-1.747,0-2.872,0c0,1.2-0.08,2.372,0.014,3.531
			c0.571,7.088-0.603,13.858-3.237,20.469c-1.657,4.158-2.826,8.509-4.309,12.739c-0.934,2.663-3.298,4.14-5.931,3.918
			c-2.719-0.229-4.884-2.031-5.274-4.734c-0.17-1.176,0.061-2.496,0.428-3.649c1.982-6.219,4.084-12.399,6.091-18.61
			c0.308-0.953,0.473-1.993,0.479-2.995c0.043-6.312-0.011-12.624,0.062-18.936c0.009-0.795,0.54-1.601,0.891-2.373
			c0.805-1.774,2.067-3.458,2.39-5.311c0.809-4.638,1.164-9.354,1.79-14.026c0.096-0.71,0.532-1.491,1.045-2.006
			c1.843-1.848,3.785-3.595,5.69-5.38C139.901,80.094,139.819,80.011,139.737,79.927z"/>
		<path fill-rule="evenodd" clip-rule="evenodd" d="M95.611,117.687c0,4.058,0.028,8.087-0.02,12.115
			c-0.012,1.007-0.125,2.058-0.435,3.01c-2.293,7.066-4.628,14.12-6.994,21.162c-0.942,2.806-3.236,4.403-5.886,4.249
			c-3.956-0.23-6.443-3.865-5.251-7.788c0.858-2.824,1.844-5.608,2.769-8.412c0.889-2.695,1.666-5.434,2.687-8.077
			c1.148-2.973,1.469-5.993,1.446-9.159c-0.086-12.052-0.035-24.104-0.035-36.157c0-1.342,0-2.684,0-4.2
			c-1.944,0.833-2.527,1.899-2.35,3.797c0.423,4.521,0.585,9.067,0.779,13.606c0.101,2.358-1.309,4.335-3.374,4.994
			c-2.045,0.652-4.451-0.114-5.515-1.979c-0.513-0.899-0.812-2.017-0.882-3.056c-0.383-5.781-0.654-11.569-0.988-17.353
			c-0.12-2.075,0.825-3.571,2.376-4.821c4.071-3.281,8.365-6.334,12.114-9.951c4.079-3.935,8.847-3.84,13.697-3.159
			c4.713,0.662,7.824,4.748,7.913,9.523c0.018,0.963,0.003,1.927,0.003,3.398c-1.834-2.13-3.386-3.933-4.937-5.735
			c-0.094,0.048-0.188,0.097-0.281,0.145c0.899,1.838,2.075,3.596,2.64,5.532c1.221,4.188,3.972,5.962,8.15,6.005
			c0.778,0.008,1.553,0.263,2.493,0.435c-0.38,3.197-0.751,6.317-1.146,9.645c-3.401-0.58-6.619-1.234-9.868-1.65
			c-2.715-0.348-4.392-1.723-5.493-4.188c-1.526-3.418-3.251-6.748-4.898-10.112c-0.241-0.492-0.523-0.964-1.034-1.349
			c1.065,4.927,2.071,9.868,3.225,14.774c0.523,2.228,2.104,3.605,4.346,4.092c1.83,0.396,3.677,0.748,5.533,0.977
			c1.038,0.128,1.406,0.57,1.27,1.538c-1.058,7.486,1.34,14.249,4.606,20.733c2.383,4.73,2.917,9.444,1.85,14.635
			c-1.221,5.943-1.865,12.004-2.796,18.009c-0.542,3.498-3.298,5.674-6.562,5.255c-3.383-0.435-5.426-3.201-5.028-6.849
			c0.129-1.185,0.322-2.362,0.499-3.542c0.887-5.953,1.797-11.903,2.643-17.862c0.097-0.683-0.022-1.466-0.271-2.114
			c-1.055-2.755-2.321-5.435-3.263-8.226C98.709,117.695,97.694,117.046,95.611,117.687z"/>
		<path fill-rule="evenodd" clip-rule="evenodd" d="M69.383,100.02c-2.037-1.345-3.824-2.517-5.603-3.702
			c-1.794-1.195-3.581-2.403-5.511-3.699c-0.049,0.475-0.129,0.887-0.129,1.299c-0.009,4.719-0.027,9.439,0.016,14.158
			c0.007,0.769,0.186,1.578,0.473,2.295c1.812,4.53,3.569,9.088,5.565,13.538c1.182,2.638,1.197,5.213,0.752,7.969
			c-1.112,6.896-2.085,13.814-3.139,20.72c-0.45,2.951-2.204,4.995-4.62,5.489c-2.553,0.521-5.107-0.462-6.25-2.724
			c-0.559-1.106-0.954-2.53-0.794-3.727c0.931-6.979,2.087-13.928,3.061-20.901c0.156-1.116-0.012-2.381-0.392-3.448
			c-0.931-2.617-2.232-5.107-3.075-7.748c-0.628-1.966-1.697-2.428-3.713-1.834c0,3.038-0.095,6.149,0.027,9.252
			c0.123,3.119-0.43,6.056-1.459,8.997c-2.097,5.995-3.982,12.063-6.015,18.081c-0.966,2.86-3.339,4.403-6.107,4.146
			c-2.724-0.254-4.859-2.067-5.223-4.785c-0.158-1.18,0.089-2.495,0.458-3.651c1.933-6.058,3.999-12.073,5.933-18.131
			c0.406-1.271,0.625-2.654,0.64-3.989c0.067-5.964,0.029-11.929,0.029-17.95c0.869-0.18,1.715-0.288,2.522-0.531
			c5.278-1.595,7.818-7.693,5.111-12.525c-1.413-2.522-3.053-4.923-4.699-7.305c-0.653-0.944-0.729-1.571,0.038-2.502
			c1.477-1.792,2.799-3.712,3.917-5.89c-1.438,1.252-2.875,2.503-4.312,3.756c-1.497,1.306-2.991,2.615-4.638,4.054
			c1.776,2.73,3.589,5.393,5.257,8.143c0.687,1.132,1.341,2.416,1.517,3.698c0.295,2.161-1.086,4.02-3.096,4.759
			c-1.934,0.711-4.195,0.261-5.376-1.469c-3.106-4.549-6.13-9.158-9.034-13.838c-1.234-1.99-0.652-4.235,1.285-5.97
			c3.558-3.185,7.165-6.314,10.778-9.436c0.885-0.765,1.313-1.684,1.79-2.76c1.49-3.363,4.268-5.25,7.973-5.532
			c1.808-0.137,3.638-0.097,5.453-0.018c4.387,0.192,7.976,3.255,9.015,7.517c0.209,0.856,0.581,1.716,1.06,2.456
			c1.358,2.098,2.848,4.11,4.213,6.204c1.253,1.921,2.613,3.691,4.711,4.784c0.391,0.203,0.651,0.701,0.907,1.104
			c0.107,0.169,0.052,0.444,0.064,0.671C68.963,92.597,69.164,96.148,69.383,100.02z"/>
		<path fill-rule="evenodd" clip-rule="evenodd" d="M140.01,64.008c-6.345-0.01-11.305-4.999-11.303-11.366
			c0.003-6.352,4.981-11.382,11.292-11.411c6.324-0.028,11.508,5.171,11.455,11.488C151.4,59.02,146.332,64.019,140.01,64.008z"/>
		<path fill-rule="evenodd" clip-rule="evenodd" d="M46.146,64.008c-6.317-0.022-11.343-5.051-11.366-11.369
			c-0.021-6.236,5.095-11.369,11.372-11.408c6.242-0.039,11.397,5.061,11.453,11.328C57.66,58.899,52.524,64.031,46.146,64.008z"/>
		<path fill-rule="evenodd" clip-rule="evenodd" d="M95.733,64.015c-6.398-0.024-11.379-5.095-11.335-11.54
			c0.042-6.176,5.13-11.228,11.324-11.244c6.319-0.016,11.581,5.247,11.487,11.49C107.116,59.019,102.016,64.038,95.733,64.015z"/>
	</g>
</g>
</svg>
