<?xml version="1.0" standalone="no"?>
<!DOCTYPE svg PUBLIC "-//W3C//DTD SVG 20010904//EN"
 "http://www.w3.org/TR/2001/REC-SVG-20010904/DTD/svg10.dtd">
<svg version="1.0" xmlns="http://www.w3.org/2000/svg"
 width="642.000000pt" height="642.000000pt" viewBox="0 0 642.000000 642.000000"
 preserveAspectRatio="xMidYMid meet">
<metadata>
Created by potrace 1.11, written by Peter Selinger 2001-2013
</metadata>
<g transform="translate(0.000000,642.000000) scale(0.100000,-0.100000)"
fill="#000000" stroke="none">
<path d="M3523 6333 c-5 -1 -25 -4 -46 -8 -25 -4 -35 -10 -30 -18 5 -9 3 -9
-8 -1 -11 9 -34 5 -104 -17 -49 -16 -98 -33 -107 -39 -10 -5 -25 -10 -33 -10
-8 0 -15 -8 -16 -17 0 -10 -3 -13 -5 -6 -3 7 -20 3 -50 -14 -24 -14 -42 -29
-39 -34 4 -5 -2 -6 -11 -2 -12 4 -15 3 -10 -5 4 -7 2 -10 -7 -7 -14 6 -64 -32
-60 -46 2 -4 -4 -6 -12 -3 -8 4 -15 1 -15 -5 0 -6 -4 -11 -10 -11 -17 0 -49
-33 -43 -43 3 -6 1 -7 -5 -3 -6 3 -20 -6 -31 -20 -12 -15 -21 -24 -21 -20 0 3
-9 -3 -20 -14 -12 -12 -18 -25 -15 -31 4 -5 2 -8 -3 -7 -10 3 -72 -59 -72 -71
0 -3 -11 -19 -25 -35 -24 -28 -29 -40 -26 -59 1 -5 -3 -5 -9 -2 -7 4 -14 -2
-17 -14 -3 -12 -9 -21 -14 -21 -5 0 -9 -7 -9 -15 0 -8 -4 -15 -9 -15 -8 0 -99
-174 -91 -176 3 0 -3 -9 -13 -19 -10 -9 -16 -24 -13 -32 3 -8 2 -12 -2 -9 -10
6 -114 -189 -105 -198 4 -3 1 -6 -6 -6 -7 0 -9 -4 -6 -10 3 -5 1 -10 -5 -10
-6 0 -8 -4 -5 -10 3 -5 1 -10 -6 -10 -6 0 -9 -8 -6 -20 3 -11 2 -18 -3 -15
-10 6 -22 -24 -14 -36 3 -5 1 -9 -4 -9 -5 0 -20 -25 -32 -56 -19 -47 -21 -57
-9 -66 12 -8 12 -9 -1 -5 -17 4 -50 -61 -53 -104 -1 -15 -5 -25 -9 -23 -11 7
-21 -43 -12 -57 4 -8 3 -9 -4 -5 -7 4 -13 1 -13 -8 -2 -20 -3 -25 -17 -59 -7
-16 -9 -33 -6 -39 4 -7 2 -8 -4 -4 -7 4 -12 1 -13 -6 0 -7 -2 -20 -4 -28 -2
-8 -7 -28 -10 -45 -4 -16 -8 -34 -10 -40 -1 -5 -6 -25 -10 -43 -4 -18 -12 -35
-16 -38 -5 -3 -9 -14 -9 -25 0 -10 -4 -19 -10 -19 -5 0 -10 -9 -10 -20 0 -11
-4 -20 -8 -20 -5 0 -9 -6 -9 -12 0 -7 -3 -26 -6 -43 -3 -16 -9 -50 -12 -75 -4
-24 -11 -53 -17 -63 -5 -11 -8 -28 -5 -38 3 -10 1 -17 -4 -13 -8 4 -14 -17
-10 -38 0 -5 -3 -8 -8 -8 -21 0 -35 -110 -28 -227 1 -22 -1 -39 -5 -36 -5 2
-8 -13 -9 -34 -2 -151 -7 -213 -18 -245 -7 -21 -9 -43 -5 -49 4 -8 3 -9 -4 -5
-12 7 -14 -6 -16 -151 -1 -39 -4 -69 -7 -67 -4 2 -9 -18 -12 -43 -4 -37 -1
-50 11 -60 16 -12 16 -13 1 -7 -13 4 -18 -3 -21 -30 -2 -20 1 -41 7 -47 7 -9
6 -10 -2 -5 -9 5 -13 -2 -14 -21 -1 -15 -2 -41 -4 -58 -2 -16 -6 -81 -9 -143
-5 -89 -3 -112 6 -106 10 6 10 4 0 -8 -9 -12 -10 -18 -2 -23 7 -5 8 -11 1 -19
-10 -12 -9 -41 2 -52 3 -4 2 -14 -3 -24 -5 -10 -7 -19 -5 -22 2 -2 7 -51 11
-108 4 -59 12 -108 18 -112 8 -6 8 -8 -1 -8 -12 0 -12 -29 3 -135 3 -27 7 -57
7 -65 0 -8 7 -21 16 -28 9 -8 10 -10 3 -7 -11 6 -13 -1 -8 -31 3 -22 5 -47 6
-57 0 -12 5 -16 13 -11 9 5 9 4 1 -5 -15 -16 -6 -53 10 -44 6 4 5 0 -2 -9 -9
-11 -10 -18 -2 -23 6 -3 8 -10 5 -15 -2 -4 2 -30 10 -56 8 -27 15 -50 15 -52
0 -9 14 -59 19 -67 3 -5 7 -18 8 -28 4 -24 19 -38 65 -59 37 -17 37 -17 55 8
l19 26 59 -27 c33 -14 61 -22 63 -17 1 5 9 17 16 28 12 15 18 16 38 7 22 -10
30 -6 86 48 40 38 62 68 62 82 0 13 7 32 15 44 10 14 15 47 15 100 2 509 5
609 21 638 9 17 24 55 33 85 8 30 25 71 37 90 12 19 37 63 55 98 18 35 50 84
72 110 21 26 55 70 75 99 47 65 185 195 242 229 42 24 45 24 74 10 38 -20 78
-59 86 -86 4 -11 11 -18 16 -15 5 3 6 -1 3 -10 -4 -9 0 -23 9 -33 18 -21 50
-129 42 -142 -3 -6 -3 -10 2 -10 4 0 9 -28 9 -63 1 -34 3 -96 5 -137 2 -69
-13 -150 -29 -150 -14 0 -77 -61 -74 -71 1 -6 -1 -8 -6 -5 -10 6 -58 -45 -54
-57 1 -5 -2 -6 -8 -2 -9 6 -112 -82 -153 -133 -10 -12 -25 -29 -33 -36 -8 -8
-14 -19 -14 -25 0 -6 -4 -11 -8 -11 -10 0 -112 -150 -141 -208 -12 -23 -20
-42 -17 -42 2 0 -1 -19 -8 -42 -15 -53 -11 -169 6 -180 10 -6 10 -8 0 -8 -10
0 -10 -5 -2 -20 6 -11 8 -20 4 -20 -4 0 1 -10 12 -22 10 -12 14 -18 7 -15 -7
5 -9 0 -6 -14 3 -12 11 -18 19 -15 8 3 14 1 14 -5 0 -7 12 -9 29 -7 17 2 29 2
28 -1 -1 -3 1 -7 6 -8 4 -2 21 -10 37 -18 27 -14 41 -14 108 -1 12 3 35 0 51
-5 47 -16 190 14 275 57 154 80 184 112 280 299 47 92 57 122 61 175 8 105 14
150 21 162 4 6 8 83 10 172 1 88 3 164 3 167 1 4 34 31 74 61 137 103 299 254
405 374 28 32 71 75 96 94 24 19 55 52 67 73 13 21 45 54 70 73 58 42 103 100
95 121 -5 12 -17 14 -55 11 -46 -5 -55 -10 -129 -86 -44 -44 -91 -86 -104 -92
-24 -12 29 41 71 70 32 22 74 87 66 101 -5 8 -25 10 -59 6 -39 -5 -56 -13 -74
-34 -13 -15 -36 -41 -50 -57 -15 -17 -26 -33 -24 -38 1 -4 -1 -7 -5 -7 -20 3
-31 -3 -66 -36 -21 -20 -35 -41 -31 -47 4 -6 3 -8 -3 -5 -13 8 -36 -17 -26
-27 4 -4 0 -4 -8 -1 -11 4 -25 -5 -42 -24 -13 -16 -27 -28 -29 -25 -9 8 -128
-108 -122 -118 4 -6 2 -8 -3 -5 -10 6 -80 -43 -95 -66 -3 -6 -16 -12 -28 -14
-17 -2 -21 1 -16 13 8 20 -37 155 -71 212 -32 55 -99 124 -144 148 -19 9 -56
23 -84 29 -72 17 -416 8 -447 -11 -7 -5 -19 -9 -26 -10 -13 -2 -92 -49 -214
-128 -71 -45 -185 -145 -181 -158 2 -4 -4 -5 -11 -2 -12 4 -14 28 -12 117 5
179 28 231 106 242 25 3 72 13 105 22 80 20 95 23 130 29 57 8 259 119 452
247 219 145 248 168 300 240 20 29 60 77 88 107 29 31 60 71 70 90 10 19 35
61 57 92 35 52 104 198 113 239 5 24 94 231 109 254 7 11 23 52 36 90 12 39
38 112 56 163 19 51 36 118 38 150 3 31 12 74 20 95 9 21 19 70 22 110 3 40 8
97 11 127 17 142 3 352 -27 411 -54 106 -116 158 -251 206 -41 14 -87 37 -102
49 -16 13 -38 25 -50 25 -33 3 -256 4 -264 2z m-348 -173 c-3 -5 -12 -10 -18
-10 -7 0 -6 4 3 10 19 12 23 12 15 0z m511 -18 c-3 -2 5 -14 17 -26 12 -11 33
-44 46 -73 13 -29 29 -49 34 -46 6 3 7 1 3 -5 -3 -6 -2 -22 4 -37 12 -32 23
-84 22 -108 0 -9 3 -15 7 -13 4 3 9 -63 10 -147 1 -83 5 -155 7 -159 3 -4 0
-8 -6 -8 -7 0 -11 -21 -10 -57 1 -32 1 -60 0 -63 -8 -25 -11 -57 -12 -125 -1
-81 -13 -141 -41 -208 -11 -25 -12 -35 -4 -30 8 5 8 2 -1 -9 -7 -9 -15 -29
-17 -45 -2 -15 -4 -29 -6 -30 -1 -2 -3 -7 -4 -13 -1 -5 -3 -11 -5 -12 -1 -2
-3 -12 -5 -23 -2 -10 -8 -28 -13 -40 -23 -47 -52 -115 -52 -119 0 -3 -13 -27
-29 -55 -16 -27 -27 -52 -24 -55 4 -3 2 -6 -3 -6 -5 0 -18 -17 -29 -37 -10
-21 -25 -46 -33 -55 -8 -9 -11 -23 -6 -30 4 -7 4 -10 -1 -6 -13 12 -56 -58
-49 -79 5 -14 4 -15 -4 -4 -8 12 -14 7 -28 -22 -10 -20 -22 -37 -27 -37 -5 0
-7 -7 -3 -15 3 -8 2 -14 -2 -12 -5 1 -35 -29 -69 -68 -33 -38 -79 -87 -101
-109 -25 -24 -39 -45 -35 -55 3 -10 2 -12 -4 -4 -6 8 -12 8 -25 -1 -10 -7 -14
-17 -10 -21 4 -5 2 -5 -4 -2 -6 4 -21 -1 -32 -11 -11 -10 -33 -27 -48 -38 -15
-10 -35 -27 -46 -36 -10 -10 -18 -16 -18 -13 0 2 -37 -21 -82 -52 -46 -31 -82
-60 -81 -64 2 -5 -3 -6 -10 -3 -16 6 -157 -64 -157 -78 0 -5 -4 -7 -9 -4 -5 3
-43 -10 -84 -29 -42 -19 -79 -35 -83 -35 -12 0 5 225 21 270 8 23 15 56 15 72
0 16 4 37 9 46 9 18 15 52 26 152 3 30 10 66 14 80 17 51 32 111 82 325 28
121 62 249 76 285 14 36 38 116 54 178 33 135 53 178 119 261 28 34 60 78 70
96 31 54 164 237 203 277 9 10 38 46 63 81 47 64 89 106 159 158 22 17 64 51
93 77 29 25 71 54 95 62 40 15 72 22 63 12z m144 -198 c0 -8 -19 -13 -24 -6
-3 5 1 9 9 9 8 0 15 -2 15 -3z m94 -10 c3 -8 2 -12 -4 -9 -6 3 -10 10 -10 16
0 14 7 11 14 -7z m6 -354 c0 -5 -2 -10 -4 -10 -3 0 -8 5 -11 10 -3 6 -1 10 4
10 6 0 11 -4 11 -10z m-1486 -466 c3 -8 2 -12 -4 -9 -6 3 -10 10 -10 16 0 14
7 11 14 -7z m1239 -529 c-3 -9 -8 -14 -10 -11 -3 3 -2 9 2 15 9 16 15 13 8 -4z
m-73 -5 c0 -5 -5 -10 -11 -10 -5 0 -7 5 -4 10 3 6 8 10 11 10 2 0 4 -4 4 -10z
m-1405 -19 c3 -5 2 -12 -3 -15 -5 -3 -9 1 -9 9 0 17 3 19 12 6z m1189 -299 c3
-5 -1 -9 -9 -9 -8 0 -12 4 -9 9 3 4 7 8 9 8 2 0 6 -4 9 -8z m-104 -116 c0 -2
-7 -7 -16 -10 -8 -3 -12 -2 -9 4 6 10 25 14 25 6z m5 -46 c-3 -5 -12 -10 -18
-10 -7 0 -6 4 3 10 19 12 23 12 15 0z m-445 -274 c0 -3 -4 -8 -10 -11 -5 -3
-10 -1 -10 4 0 6 5 11 10 11 6 0 10 -2 10 -4z m-780 -122 c0 -8 -19 -13 -24
-6 -3 5 1 9 9 9 8 0 15 -2 15 -3z m-23 -109 c0 -8 -4 -12 -9 -9 -5 3 -6 10 -3
15 9 13 12 11 12 -6z m803 -175 c0 -5 -2 -10 -4 -10 -3 0 -8 5 -11 10 -3 6 -1
10 4 10 6 0 11 -4 11 -10z m1300 6 c0 -2 -7 -7 -16 -10 -8 -3 -12 -2 -9 4 6
10 25 14 25 6z m-745 -545 c3 -5 2 -12 -3 -15 -5 -3 -9 1 -9 9 0 17 3 19 12 6z
m-395 -497 c0 -8 -19 -13 -24 -6 -3 5 1 9 9 9 8 0 15 -2 15 -3z m-125 -212
c-3 -3 -11 0 -18 7 -9 10 -8 11 6 5 10 -3 15 -9 12 -12z m-799 -167 c-1 -8 -5
-17 -8 -21 -5 -4 -4 16 1 34 3 9 9 -1 7 -13z"/>
</g>
</svg>
